<?xml version="1.0" encoding="UTF-8" standalone="no"?>
<!DOCTYPE svg PUBLIC "-//W3C//DTD SVG 1.1//EN" "http://www.w3.org/Graphics/SVG/1.1/DTD/svg11.dtd">
<svg width="100%" height="100%" viewBox="0 0 1753 1447" version="1.1" xmlns="http://www.w3.org/2000/svg" xmlns:xlink="http://www.w3.org/1999/xlink" xml:space="preserve" xmlns:serif="http://www.serif.com/" style="fill-rule:evenodd;clip-rule:evenodd;stroke-linejoin:round;stroke-miterlimit:2;">
    <g transform="matrix(1,0,0,1,-409.157463,-1368.971384)">
        <g transform="matrix(4.166667,0,0,4.166667,400.224831,1356.821671)">
            <path d="M191.566,9.756C196.55,10.046 196.506,10.51 201.495,10.097C203.089,9.965 203.075,10.903 221.496,9.966C223.99,9.839 223.914,10.459 226.461,10.133C229.49,9.746 229.444,10.483 232.482,10.349C234.527,10.258 234.502,10.799 236.475,10.396C238.593,9.962 241.035,10.64 241.417,10.746C242.196,10.963 242.169,10.099 251.5,10.085C268.025,10.058 267.972,10.124 284.464,10.037C284.976,10.294 284.988,11.152 285.5,11.409C287.022,12.173 291.223,11.267 291.709,11.162C295.091,11.74 295.043,11.445 298.5,11.429C302.132,11.411 302.242,12.029 305.457,10.468C306.104,10.81 305.798,11.089 306.5,11.46C306.571,11.498 306.699,11.566 307.503,11.551C312.265,11.462 312.623,12.705 316.54,10.066C321.064,10.108 321.025,9.787 325.494,10.552C328.843,11.126 328.763,9.84 331.504,9.962C349.143,10.748 349.329,8.928 354.414,10.734C357.716,11.906 359.29,9.86 361.504,9.963C370.377,10.375 372.687,9.766 374.549,10.366C375.162,10.564 379.344,11.911 382.584,10.726C386.75,9.202 386.776,10.684 389.441,10.937C390.019,10.992 393.799,11.35 396.562,12.344C406.245,15.825 405.551,17.028 409.39,19.678C413.228,22.327 412.61,22.873 415.327,26.606C419.479,32.308 418.394,32.819 418.763,33.294C420.919,36.058 420.561,40.576 421.307,42.577C422.544,45.898 420.895,45.983 421.395,49.514C422.691,58.665 421.515,79.733 421.954,82.469C422.596,86.479 421.469,106.781 422.256,110.565C422.693,112.667 421.181,117.168 421.92,120.423C422.373,122.418 422.148,139.21 421.654,140.557C421.352,141.379 421.588,141.366 421.936,151.5C422.057,155.023 420.604,155.028 421.654,158.443C422.232,160.321 421.028,161.211 421.274,162.557C422.714,170.428 421.509,170.456 421.955,178.47C422.518,188.584 421.415,188.605 421.729,189.423C421.995,190.12 422.46,190.737 422.678,191.451C422.732,191.629 421.799,197.175 421.656,197.56C420.499,200.661 422.592,204.721 422.016,208.464C421.25,213.439 422.364,218.245 422.012,220.463C421.14,225.948 422.443,228.622 422.013,236.464C421.651,243.039 421.853,243.024 421.656,243.558C420.739,246.051 421.631,249.696 421.89,251.456C422.63,256.495 420.067,256.569 421.643,261.446C421.645,261.452 421.711,261.452 421.915,282.495C422.058,297.313 422.092,297.347 421.643,298.551C421.337,299.372 421.587,299.359 422.039,309.496C422.117,311.249 421.036,312.189 421.282,313.552C421.632,315.491 421.197,315.415 421.054,317.441C420.988,318.373 420.568,324.312 417.964,328.709C417.339,329.282 416.642,328.55 415.829,330.666C415.115,332.528 413.803,333.058 415.652,333.919C415.942,334.054 416.244,333.405 416.534,333.541C415.995,334.074 414.987,333.915 414.447,334.448C413.91,334.98 413.933,335.884 413.522,336.519C412.564,337.998 412.181,337.538 410.998,338.779C410.399,339.125 409.53,338.61 408.931,338.956C408.641,339.123 409.193,339.725 408.954,339.96C408.715,340.196 408.227,339.74 407.948,339.926C407.851,339.991 408.07,340.195 406.939,340.977C406.825,341.055 406.917,341.1 406.639,342.676C405.457,343.39 405.492,343.36 404.413,344.234C401.317,345.587 398.86,347.014 398.393,347.285C396.671,348.285 393.351,348.382 392.674,348.795C392.313,349.016 390.114,350.358 387.45,349.622C384.481,348.802 384.495,348.912 381.453,348.99C377.974,349.079 378.026,349.158 374.499,349.001C364.282,348.548 358.259,350 357.463,349.853C344.401,347.436 344.132,351.382 338.458,349.618C330.083,347.014 316.984,351.213 306.506,349.453C303.475,348.944 303.423,350.229 300.581,349.274C298.525,348.584 292.798,349.692 292.476,349.669C286.915,349.285 286.979,348.851 286.499,348.896C282.486,349.268 282.53,348.781 278.496,348.915C270.098,349.194 270.113,349.06 269.416,349.267C267.438,349.856 267.441,348.929 265.445,349.267C261.522,349.931 239.286,347.893 236.426,349.378C234.575,350.34 234.522,349.864 232.507,349.447C232.254,349.394 222.13,348.437 217.42,349.185C216.557,349.322 216.58,349.259 206.497,349.269C194.466,349.282 194.476,349.898 193.452,349.698C183.881,347.827 183.846,349.836 181.48,349.651C173.434,349.023 173.484,348.671 170.424,349.188C168.923,349.442 162.517,348.841 161.523,348.932C152.519,349.757 152.535,348.488 143.524,348.924C132.98,349.434 133.031,348.674 122.5,349.502C119.895,349.707 110.495,348.675 108.53,348.944C103.032,349.696 102.901,348.015 97.558,349.658C97.142,349.785 91.829,349.772 91.443,349.654C86.647,348.194 86.536,349.504 81.552,349.035C75.223,348.44 75.024,349.8 73.548,349.883C72.742,349.929 66.543,350.278 63.466,349.635C55.645,348 55.061,350.807 41.522,349.648C39.656,348.194 39.619,348.388 37.318,347.85C34.029,347.174 33.331,347.609 24.334,341.985C24.09,341.289 24.642,339.927 22.267,338.935C18.175,337.226 16.059,332.433 15.5,332.037C15.124,331.77 14.501,332.16 14.125,331.894C13.752,331.466 13.378,331.038 13.005,330.61C12.556,329.236 12.653,329.257 11.843,328.151L11.526,326.497C10.657,323.45 10.238,323.607 9.943,320.441C9.706,317.893 7.29,315.15 8.69,311.576C9.954,308.347 7.275,307.444 9.108,300.497C9.108,283.949 8.826,283.942 9.079,282.527C9.167,282.035 10.084,281.992 10.172,281.5L10.172,280.5L10.177,279.5C10.035,276.706 10.037,276.724 10.024,276.482C9.794,272.306 11.051,272.133 9.268,268.343C10.178,264.926 9.714,264.893 9.685,226.499C9.683,224.634 9.765,224.613 8.864,223.014C11.502,220.571 10.463,220.077 10.239,216.527C10.096,214.251 10.028,214.255 8.687,212.428C7.341,208.64 9.136,208.616 9.045,204.594C9.073,202.97 8.957,203.022 8.271,201.568C6.735,196.656 9.221,196.67 8.993,191.5C8.876,188.862 9.248,188.909 8.991,158.493C8.965,155.419 7.391,155.334 8.325,152.433C10.126,146.836 8.186,143.112 8.348,142.46C10.058,135.575 9.284,135.527 8.945,128.441C8.901,127.524 7.747,126.147 8.324,124.433C9.731,120.25 9.264,120.172 8.349,116.539C8.27,116.225 8.755,116.274 8.672,112.503C8.616,109.988 9.296,110.063 9.12,107.521C8.961,105.239 8.024,103.303 8.581,99.511C9.168,95.518 7.688,95.509 8.484,91.498C9.466,86.549 9.144,85.11 9.022,84.567C8.465,82.08 8.99,82.071 8.673,79.497C8.44,77.609 9.066,77.728 9.006,77.585C8.78,77.049 8.154,76.778 7.837,76.29C6.337,73.976 9.574,73.87 8.602,69.488C8.446,68.786 8.937,68.794 8.991,60.5C9.035,53.688 10.621,53.44 8.538,49.503C8.279,47.495 8.283,47.555 8.47,45.499C11.134,40.684 9.712,40.178 12.162,35.315C13.326,33.007 13.058,32.966 13.478,30.472C27.866,8.423 36.551,11.411 77.5,11.36C114.987,11.313 161.796,11.547 162.387,11.179C162.716,10.975 162.831,10.517 163.159,10.313C165.333,11.52 165.29,11.611 165.505,11.615C170.998,11.715 171.253,10.403 171.658,10.242C172.722,10.547 172.739,10.552 185.494,10.106C190.117,10.701 190.59,9.951 191.566,9.756Z" style="fill:rgb(233,229,253);fill-opacity:0.99;"/>
            <path d="M330.788,182.501C330.774,269.538 331.219,269.879 329.114,273.238C326.157,277.955 321.125,277.533 304.5,277.47C287.592,277.406 292.887,266.415 291.923,242.493C291.518,232.422 292.129,232.423 291.965,116.507C291.943,101.065 290.567,89.3 300.442,87.252C301.877,86.955 321.043,86.114 324.376,87.774C332.299,91.72 330.763,97.055 330.826,117.499C330.864,129.638 330.751,151.862 330.788,182.501Z" style="fill:rgb(114,74,241);"/>
            <path d="M229.12,212.503C229.201,173.013 228.953,172.117 229.731,169.563C232.422,160.727 240.893,161.417 241.5,161.417C259.249,161.443 268.095,159.186 268.201,176.495C268.244,183.535 268.554,234.106 268.2,264.496C268.034,278.73 262.646,277.594 240.5,277.479C227.441,277.411 229.149,267.963 229.14,254.497C229.115,215.824 229.128,215.863 229.12,212.503Z" style="fill:rgb(130,95,240);"/>
            <path d="M98.844,260.506C98.857,255.146 98.936,222.739 98.906,193.498C98.901,189.067 96.308,172.659 110.498,172.368C128.104,172.006 133.146,172.23 136.063,178.705C136.964,180.703 137.347,180.74 137.267,234.501C137.213,270.946 138.547,275.107 130.405,277.096C128.416,277.582 108.192,277.34 107.538,277.224C97.088,275.36 98.868,264.141 98.844,260.506Z" style="fill:rgb(123,87,240);"/>
            <path d="M165.974,223.53C165.437,217.15 165.114,213.317 165.581,143.501C165.697,126.306 171.352,127.245 188.509,127.244C207.666,127.243 204.44,135.011 204.672,155.498C205.403,219.929 203.923,219.936 204.401,225.517L203.5,224.434C199.932,217.017 192.399,218.558 178.503,218.431C170.69,218.36 170.769,220.866 165.974,223.53Z" style="fill:rgb(175,151,243);"/>
            <path d="M165.974,223.53C170.769,220.866 170.69,218.36 178.503,218.431C192.399,218.558 199.932,217.017 203.5,224.434L204.401,225.517C204.917,230.161 204.775,230.099 204.775,236.493C204.777,270.864 206.776,277.387 193.499,277.419C176.462,277.46 170.092,278.619 166.861,272.325C164.442,267.612 165.569,231.798 165.974,223.53Z" style="fill:rgb(104,62,239);"/>
            <path d="M13.478,30.472C13.058,32.966 13.326,33.007 12.162,35.315C9.712,40.178 11.134,40.684 8.47,45.499C5.696,40.811 7.15,39.339 5.256,37.777C4.885,37.47 -0.324,33.175 3.6,31.984C5.661,31.358 8.269,31.918 13.478,30.472Z" style="fill:rgb(246,246,247);fill-opacity:0.04;"/>
            <path d="M305.457,10.468C308.092,3.637 307.75,3.517 308.211,3.088C308.652,2.678 309.582,2.589 314.223,7.739C315.352,8.992 315.366,8.887 316.54,10.066C312.623,12.705 312.265,11.462 307.503,11.551C306.699,11.566 306.571,11.498 306.5,11.46C305.798,11.089 306.104,10.81 305.457,10.468Z" style="fill:rgb(250,250,253);fill-opacity:0.05;"/>
            <path d="M9.268,268.343C11.051,272.133 9.794,272.306 10.024,276.482C10.037,276.724 10.035,276.706 10.177,279.5L10.172,280.5L10.172,281.5C10.084,281.992 9.167,282.035 9.079,282.527C8.826,283.942 9.108,283.949 9.108,300.497C9.071,298.82 8.708,282.097 8.754,279.533C8.791,277.414 8.089,277.56 7.96,275.448C7.811,272.994 2.891,272.382 4.752,269.653C6.173,267.571 6.874,269.198 9.268,268.343Z" style="fill:rgb(248,247,251);fill-opacity:0.07;"/>
            <path d="M417.964,328.709C417.786,329.635 417.609,330.561 417.431,331.486L417.418,332.443L416.534,333.541C416.244,333.405 415.942,334.054 415.652,333.919C413.803,333.058 415.115,332.528 415.829,330.666C416.642,328.55 417.339,329.282 417.964,328.709Z" style="fill:rgb(229,228,232);fill-opacity:0.06;"/>
            <path d="M410.998,338.779C409.771,341.166 409.475,341.968 406.639,342.676C406.917,341.1 406.825,341.055 406.939,340.977C408.07,340.195 407.851,339.991 407.948,339.926C408.227,339.74 408.715,340.196 408.954,339.96C409.193,339.725 408.641,339.123 408.931,338.956C409.53,338.61 410.399,339.125 410.998,338.779Z" style="fill:rgb(228,227,231);fill-opacity:0.05;"/>
            <path d="M13.005,330.61C13.378,331.038 13.752,331.466 14.125,331.894L14.293,332.591C12.527,331.296 13.067,330.975 13.005,330.61Z" style="fill:rgb(219,218,222);fill-opacity:0.04;"/>
            <path d="M8.271,201.568C8.957,203.022 9.073,202.97 9.045,204.594C8.787,203.585 8.529,202.577 8.271,201.568Z" style="fill:rgb(184,183,187);fill-opacity:0.06;"/>
        </g>
    </g>
</svg>
