<?xml version="1.0" encoding="UTF-8" standalone="no"?>
<!DOCTYPE svg PUBLIC "-//W3C//DTD SVG 1.1//EN" "http://www.w3.org/Graphics/SVG/1.1/DTD/svg11.dtd">
<svg width="100%" height="100%" viewBox="0 0 952 955" version="1.1" xmlns="http://www.w3.org/2000/svg" xmlns:xlink="http://www.w3.org/1999/xlink" xml:space="preserve" xmlns:serif="http://www.serif.com/" style="fill-rule:evenodd;clip-rule:evenodd;stroke-linejoin:round;stroke-miterlimit:2;">
    <g transform="matrix(1,0,0,1,-766.780002,-1088.469672)">
        <g transform="matrix(4.166667,0,0,4.166667,631.824147,953.697421)">
            <path d="M152.794,32.345C154.039,33.536 161.701,34.621 165.251,34.109C175.432,39.375 212.023,38.607 244.014,88.773C244.378,89.423 244.742,90.074 245.106,90.724C257.026,113.711 253.897,114.876 256.39,121.541C256.461,121.733 256.499,121.696 257.863,123.634C258.236,126.566 258.11,126.504 258.607,129.482C261.712,148.1 257.997,155.784 260.813,160.162C254.843,168.03 262.109,172.415 243.117,207.228C242.814,207.594 242.511,207.96 242.209,208.326C235.148,219.605 227.235,227.213 225.272,229.256C222.521,232.16 222.653,232.178 222.398,232.405C220.795,233.341 221.309,233.929 219.568,234.582C219.354,234.662 219.45,234.755 217.661,236.71C215.945,238.187 215.926,238.055 213.838,238.962C211.955,239.779 213.157,241.664 191.67,251.876C179.148,257.827 176.933,255.812 171.052,259.834C168.439,258.794 168.405,259.509 158.717,260.931C156.264,260.729 155.786,260.805 155.534,260.845C142.779,262.864 116.661,259.301 100.388,251.739C17.836,213.376 15.131,113.908 67.107,65.108C108.186,26.538 143.41,35.707 152.794,32.345Z" style="fill:rgb(233,228,253);fill-opacity:0.99;"/>
            <path d="M160.343,97.675C167.762,105.648 167.745,106.633 167.137,144.483C166.707,171.22 124.746,175.096 124.053,142.522C123.388,111.259 123.061,99.906 136.711,93.984C148.125,89.032 158.781,96.57 160.343,97.675Z" style="fill:rgb(104,62,236);"/>
            <path d="M116.079,144.521C116.296,146.078 115.984,157.744 127.785,167.143C143.202,179.423 173.718,173.866 175.267,144.491C175.673,136.803 185.268,135.964 184.548,146.502C182.299,179.46 151.394,181.028 150.485,183.494C150.396,183.737 148.886,193.996 152.524,194.143C153.095,194.166 169.141,192.164 166.348,200.445C165.479,203.021 164.784,204.312 132.5,203.464C131.712,203.443 122.116,203.191 125.514,196.508C126.224,195.111 128.155,194.244 129.478,194.211C133.274,194.118 140.838,195.537 140.865,191.513C140.87,190.772 140.926,182.741 139.564,182.342C134.493,180.854 123.362,179.675 112.662,164.396C105.962,154.83 103.732,134.571 113.615,139.296C116.492,140.672 115.549,141.406 116.079,144.521Z" style="fill:rgb(98,59,225);"/>
            <path d="M244.014,88.773C247.377,87.051 247.497,88.221 247.491,88.5C247.486,88.761 247.482,88.963 245.106,90.724C244.742,90.074 244.378,89.423 244.014,88.773Z" style="fill:rgb(129,128,130);fill-opacity:0.09;"/>
            <path d="M243.117,207.228C246.698,208.178 244.713,209.431 244.504,209.456C244.504,209.456 242.392,208.416 242.209,208.326C242.511,207.96 242.814,207.594 243.117,207.228Z" style="fill:rgb(125,124,127);fill-opacity:0.08;"/>
            <path d="M222.398,232.405L222.038,233.29L220.371,235.293C219.333,236.197 219.43,236.144 219.333,236.197C218.525,236.644 218.444,236.277 217.661,236.71C219.45,234.755 219.354,234.662 219.568,234.582C221.309,233.929 220.795,233.341 222.398,232.405Z" style="fill:rgb(242,240,246);fill-opacity:0.25;"/>
        </g>
    </g>
</svg>
