<?xml version="1.0" encoding="UTF-8" standalone="no"?>
<!DOCTYPE svg PUBLIC "-//W3C//DTD SVG 1.1//EN" "http://www.w3.org/Graphics/SVG/1.1/DTD/svg11.dtd">
<svg width="100%" height="100%" viewBox="0 0 1836 1051" version="1.1" xmlns="http://www.w3.org/2000/svg" xmlns:xlink="http://www.w3.org/1999/xlink" xml:space="preserve" xmlns:serif="http://www.serif.com/" style="fill-rule:evenodd;clip-rule:evenodd;stroke-linejoin:round;stroke-miterlimit:2;">
    <g transform="matrix(1,0,0,1,-376.489113,-1228.568518)">
        <g transform="matrix(4.166667,0,0,4.166667,362.724283,1220.603675)">
            <path d="M38.548,3.874L39.388,4.102C40.44,4.083 40.377,4.233 41.457,4.213C43.771,4.169 43.513,3.523 44.499,3.193C50.535,3.212 50.491,3.203 56.483,3.203C56.91,3.261 57.073,3.943 57.5,4.001C57.5,4.001 59.364,3.308 59.526,3.248C60.486,3.491 60.439,2.978 61.459,3.237C62.149,3.412 61.854,3.794 62.512,4.005C63.33,4.267 66.227,3.342 66.539,3.242C70.431,4.243 75.73,3.337 76.517,3.202C103.236,3.225 346.899,3.43 410.503,3.156C410.931,3.32 411.109,3.898 411.536,4.062C415.065,5.419 417.194,3.176 427.542,10.439C429.297,11.67 429.415,11.32 429.56,11.427C429.762,11.576 429.593,11.999 429.801,12.14C430.062,12.318 430.499,12.03 430.743,12.23C430.921,12.377 430.62,12.597 432.423,14.572C435.052,17.45 435.159,17.338 435.365,17.606C435.648,17.975 437.037,20.465 437.177,20.716C440.799,27.211 440.47,27.338 442.244,34.537C442.452,57.422 442.584,173.976 442.19,185.453C441.348,188.736 440.74,192.318 438.464,196.48C438.185,197.26 437.046,198.447 436.684,200.654C436.4,201.004 436.116,201.353 435.832,201.703C435.453,202.062 435.291,201.497 434.917,201.852C434.568,202.184 435.112,202.352 434.763,202.718C434.568,202.922 434.127,202.678 433.934,202.883C433.73,203.1 433.98,203.545 433.779,203.765C433.588,203.973 433.154,203.755 432.955,203.954C432.756,204.152 432.966,204.58 432.764,204.776C432.556,204.979 432.119,204.762 431.914,204.968C431.719,205.163 431.966,205.598 431.76,205.782C431.535,205.983 431.083,205.699 430.864,205.907C430.653,206.107 430.931,206.563 430.724,206.766C430.51,206.974 430.044,206.685 429.841,206.903C429.624,207.136 429.931,207.618 429.714,207.851C429.542,207.988 428.663,208.693 427.7,209.711C427.063,209.917 426.331,209.621 425.694,209.827C424.707,210.146 420.952,212.385 420.55,212.624C418.49,212.941 418.662,213.435 416.525,213.601C416.525,213.601 414.663,214.766 414.501,214.867C413.87,214.894 413.238,214.922 412.606,214.949C408.145,213.947 295.158,214.821 280.501,214.823C264.307,214.825 264.234,213.688 260.496,214.76C240.2,214.608 240.242,214.065 238.484,214.178C228.925,214.792 219.974,214.143 216.492,214.589C208.409,214.881 187.306,214.725 167.489,214.723C167.035,214.564 164.224,213.582 161.519,213.971C145.048,216.341 112.996,213.129 110.653,214.906C109.922,215.461 109.439,216.298 108.708,216.852C107.73,217.619 104.995,220.374 104.682,220.69C103.867,221.147 103.741,220.522 102.924,220.98C102.499,221.218 103.103,221.475 102.755,221.771C102.523,221.967 102.111,221.731 101.851,221.887C100.593,222.645 101.435,223.608 88.257,234.23C87.629,234.737 88.063,234.985 87.515,235.518C87.296,235.732 86.849,235.435 86.602,235.616C86.602,235.616 85.783,237.577 85.711,237.747C85.074,238.11 84.437,238.472 83.8,238.834C83.384,239.206 83.251,238.512 82.83,238.888C82.433,239.242 83.152,239.424 82.747,239.774C82.5,239.988 81.998,239.577 81.767,239.808C81.537,240.037 81.964,240.549 81.737,240.781C81.517,241.007 81,240.573 80.79,240.809C80.55,241.079 80.987,241.623 80.747,241.892C79.429,242.901 76.116,246.331 75.728,246.732C75.181,247.021 74.427,246.629 73.88,246.918C73.624,247.054 73.974,247.591 73.752,247.777C73.506,247.983 73.034,247.621 72.79,247.83C72.569,248.019 72.898,248.505 72.678,248.696C72.437,248.905 71.963,248.543 71.724,248.754C71.503,248.95 71.841,249.438 71.62,249.635C71.198,250.009 70.802,249.322 69.656,250.681C69.369,251.021 66.477,254.452 64.102,250.713C63.869,250.348 64.049,249.812 63.817,249.446C63.141,230.563 65.809,215.356 61.481,214.586C57.63,213.9 38.866,216.812 30.363,210.757C29.752,210.322 29.19,209.796 28.507,209.488C28.206,209.353 27.79,209.662 27.518,209.476C27.301,209.327 27.584,208.839 27.359,208.703C27.059,208.521 26.602,208.935 26.307,208.744C26.138,208.634 26.523,207.981 24.294,207.707C21.735,205.003 18.754,202.201 18.259,201.735C18.103,199.375 17.831,199.439 16.16,197.729C16.025,197.397 16.36,196.988 16.225,196.657C16.117,196.389 15.78,196.606 14.325,193.581C14.055,191.959 13.998,192.046 13.274,190.586C13.26,190.428 13.1,188.612 13.1,188.612C11.405,183.756 12.197,183.663 12.038,178.504L11.221,177.485C11.215,169.823 11.209,162.161 11.202,154.5C11.312,154.088 11.892,153.914 12.001,153.503C12.267,152.506 12.043,151.657 12.002,151.502C11.818,150.805 11.382,151.156 11.209,150.501C11.209,141.167 11.209,131.834 11.209,122.5C11.293,122.082 11.916,121.913 12,121.495C12.01,121.449 12.012,116.535 12.003,116.502C11.891,116.089 11.312,115.913 11.2,115.5C11.313,114.803 11.891,115.184 12.003,114.495C12.055,114.179 12.008,114.197 12.012,110.495C12.042,83.788 12.397,83.795 12.136,81.489C11.855,75.999 11.891,76.057 12.004,70.501C12.267,68.437 11.851,68.442 12.227,44.502C12.221,38.401 12.221,38.459 12.037,32.372L12.071,31.449C12.385,30.416 12.699,29.383 13.013,28.349C13.269,27.904 13.977,27.854 14.232,27.41C14.407,27.105 14.027,26.685 14.157,26.359C14.438,25.654 14.849,26.023 15.068,25.313C15.37,24.332 14.786,24.317 15.094,23.319C15.38,23.032 17.13,21.28 18.052,19.211C18.32,18.801 18.893,18.659 19.16,18.249C19.329,17.991 19.076,17.564 19.279,17.331C19.574,16.992 19.73,17.507 20.084,17.189C20.457,16.855 19.993,16.691 20.342,16.378C21.349,15.348 21.315,15.396 22.335,14.339C22.872,13.784 22.902,13.932 23.401,13.4C24.671,12.042 24.074,11.827 24.311,11.272C24.463,11.259 26.202,11.109 26.202,11.109C26.395,10.963 26.246,10.569 26.439,10.424C26.682,10.242 27.101,10.454 27.334,10.259C27.528,10.098 27.315,9.675 27.518,9.524C27.718,9.376 27.792,9.719 30.373,8.268C31.364,7.711 31.295,7.732 32.355,7.214C34.258,6.286 34.254,6.362 34.406,6.265C34.825,5.999 34.959,5.402 35.378,5.136C37.203,5.165 37.308,5.257 38.548,3.874Z" style="fill:rgb(105,63,238);fill-opacity:1;"/>
            <path d="M214.662,141.502C214.85,115.213 213.766,110.553 218.499,110.822C223.357,111.098 222.487,114.657 222.419,136.5C222.325,166.328 223.245,167.92 219.583,168.808C213.625,170.252 214.695,164.273 214.662,141.502Z" style="fill:rgb(222,207,253);"/>
            <path d="M325.834,122.502C325.843,120.133 324.928,112.158 328.439,111.283C330.233,110.835 332.107,111.918 332.689,113.42C333.623,115.832 333.037,160.441 332.983,164.529C332.924,169.027 328.722,169.681 326.68,167.355C325.824,166.38 325.787,166.193 325.834,122.502Z" style="fill:rgb(222,205,253);"/>
            <path d="M218.534,86.903C219.054,86.769 222.718,85.828 223.624,82.527C225.07,77.261 220.664,81.356 217.511,81.075C202.333,79.722 210.249,56.682 221.356,62.786C223.78,64.118 223.957,61.515 226.527,62.432C227.815,62.891 227.942,63.313 227.477,79.499C227.059,94.068 214.946,90.241 212.402,88.644C207.38,85.493 209.762,80.348 212.635,83.375C215.116,85.989 214.925,86.578 218.534,86.903Z" style="fill:rgb(248,234,253);"/>
            <path d="M105.151,125.504C105.15,120.078 104.28,112.378 107.427,111.305C112.81,109.47 111.869,115.388 111.874,139.511C111.879,164.549 112.821,169.693 107.556,168.312C104.679,167.557 105.166,166.3 105.151,125.504Z" style="fill:rgb(226,213,253);"/>
            <path d="M107.888,75.603C103.027,88.886 92.611,77.685 93,82.403C93.578,89.407 92.136,89.657 91.545,89.759C88.281,90.325 89.239,84.831 89.214,67.503C89.214,67.348 88.01,60.065 92.778,63.133C94.856,64.469 102.106,57.645 107.14,66.679C108.713,69.502 107.984,74.893 107.888,75.603Z" style="fill:rgb(247,232,253);"/>
            <path d="M314.988,151.518C315.004,152.208 315.198,160.657 309.59,158.25C306.525,156.934 306.916,155.932 306.981,130.513C306.983,129.795 307.008,119.957 313.565,124.425C315.621,125.826 314.918,133.02 314.986,137.501C315.131,147.005 315.023,150.397 314.988,151.518Z" style="fill:rgb(193,170,254);"/>
            <path d="M83.716,77.61C73.668,91.795 57.516,71.914 66.543,73.096C67.764,73.256 70.304,81.001 77.467,78.41C78.115,78.175 86.516,72.104 73.572,69.189C56.015,65.235 69.38,46.991 80.32,53.81C85.634,57.122 83.703,62.44 80.484,59.515C77.364,56.679 77.596,55.439 73.445,56.209C68.773,57.076 67.35,63.404 73.382,64.925C77.835,66.048 87.246,67.231 83.716,77.61Z" style="fill:rgb(253,247,253);"/>
            <path d="M123.575,78.687C125.836,77.147 128.871,74.376 129.523,76.488C131.062,81.47 116.317,86.748 112.418,76.534C106.558,61.181 130.316,55.444 130.152,71.475C130.125,74.131 128.63,72.875 117.477,73.29C114.986,73.382 115.121,80.291 123.575,78.687Z" style="fill:rgb(247,232,253);"/>
            <path d="M134.242,78.604C132.73,70.032 140.676,70.862 144.615,69.93C147.767,69.185 145.733,66.29 145.198,65.894C140.913,62.727 138.055,69.618 135.589,68.332C129.634,65.227 150.235,54.074 150.467,70.501C150.561,77.206 151.258,83.185 147.446,81.601C145.421,80.76 145.39,81.234 143.343,82.072C143.161,82.147 141.56,82.543 140.5,82.535C136.486,82.505 136.555,81.898 134.242,78.604Z" style="fill:rgb(252,244,251);"/>
            <path d="M195.914,134.487C195.957,132.82 195.872,131.152 195.915,129.485C196.112,121.861 204.041,122.016 203.948,129.502C203.728,147.259 205.194,154.128 201.51,155.524C194.431,158.206 195.895,146.431 195.914,134.487Z" style="fill:rgb(173,144,253);"/>
            <path d="M122.818,134.497C122.82,134.129 121.247,122.369 127.503,123.485C131.462,124.191 130.714,130.243 130.715,130.501C130.761,151.739 131.388,154.867 127.52,155.612C121.541,156.763 122.837,148.019 122.818,134.497Z" style="fill:rgb(225,212,253);"/>
            <path d="M93.803,139.504C93.8,144.85 95.251,158.493 88.586,156.195C86.63,155.521 84.719,154.862 85.715,130.502C85.738,129.933 85.959,124.518 90.536,125.277C95.018,126.02 93.793,134.507 93.803,139.504Z" style="fill:rgb(192,170,253);"/>
            <path d="M240.801,147.497C240.785,148.445 241.936,156.266 237.519,156.715C232.604,157.215 233.63,150.864 233.599,132.499C233.598,131.887 233.588,126.032 234.898,124.966C235.789,124.241 238.442,123.563 240.138,125.755C241.054,126.939 240.776,128.525 240.801,147.497Z" style="fill:rgb(230,219,251);"/>
            <path d="M156.051,72.501C155.742,64.111 156.038,55.89 156.09,54.446C156.099,54.195 156.18,51.934 158.511,52.446C159.615,52.688 160.678,52.921 159.882,66.507C159.383,75.012 165.314,62.895 169.475,62.209C176.071,61.121 169.457,66.293 166.957,68.929C163.386,72.693 173.944,79.376 172.451,81.466C169.345,85.813 164.522,73.182 161.479,74.465C159.49,75.303 160.355,75.923 159.747,80.563C159.547,82.094 155.852,83.061 155.953,79.501C156.053,75.997 156.038,76.055 156.051,72.501Z" style="fill:rgb(253,247,252);"/>
            <path d="M344.074,132.514C344.045,131.795 343.677,122.529 349.57,125.387C351.454,126.301 351.822,126.811 351.454,151.498C351.448,151.905 351.4,155.102 348.529,155.649C343.058,156.692 344.132,149.867 344.074,132.514Z" style="fill:rgb(217,200,254);"/>
            <path d="M204.177,78.503C203.615,81.209 204.032,82.667 201.376,81.793C198.42,80.821 203.857,62.622 194.554,65.649C187.753,67.862 194.378,83.988 188.375,81.755C187.084,81.275 187.375,77.033 187.426,65.499C187.453,59.433 190.835,63.842 192.444,63.307C192.503,63.287 196.261,60.697 200.466,62.567C205.142,64.647 204.184,72.823 204.177,78.503Z" style="fill:rgb(250,238,253);"/>
            <path d="M93.889,76.272C93.557,75.424 90.389,67.339 97.496,65.485C108.366,62.65 105.09,87.162 93.889,76.272Z" style="fill:rgb(99,60,225);"/>
            <path d="M223.848,71.502C222.62,84.275 208.589,75.496 213.945,67.786C215.783,65.139 222.88,62.668 223.848,71.502Z" style="fill:rgb(100,63,224);"/>
            <path d="M288.306,143.496C288.319,142.786 288.442,135.977 289.712,134.737C289.955,134.5 297.418,129.653 295.881,145.558C295.587,148.596 288.845,152.686 288.306,143.496Z" style="fill:rgb(218,199,253);"/>
            <path d="M259.144,137.546C259.162,138.679 260.741,147.745 254.551,147.013C250.126,146.489 250.736,140.5 251.178,137.448C251.558,134.823 256.679,130.526 259.144,137.546Z" style="fill:rgb(208,186,253);"/>
            <path d="M11.061,40.47C11.449,41.814 11.838,43.158 12.227,44.502C11.851,68.442 12.267,68.437 12.004,70.501C8.931,66.615 7.408,68.235 6.713,66.409C6.123,64.855 6.181,64.807 4.744,64.075C0.495,61.909 6.929,62.36 7.644,60.578C8.489,58.472 8.817,58.671 9.563,56.534C10.454,53.985 8.927,46.274 11.061,40.47Z" style="fill:rgb(229,215,252);fill-opacity:0.04;"/>
            <path d="M141.137,141.497C141.138,141.479 140.437,136.359 143.661,134.925C149.39,132.378 149.473,140.798 149.48,141.5C149.542,147.828 141.643,149.804 141.137,141.497Z" style="fill:rgb(217,197,253);"/>
            <path d="M410.503,3.156C413.005,2.981 412.94,3.014 415.505,2.807C417.249,2.666 425.087,5.25 428.392,8.603C433.369,13.653 433.912,13.145 434.113,13.725C435.353,17.302 437.333,15.871 438.793,19.357C442.16,27.396 443.326,27.15 442.961,32.466C442.722,33.156 442.483,33.847 442.244,34.537C440.47,27.338 440.799,27.211 437.177,20.716C437.037,20.465 435.648,17.975 435.365,17.606C435.159,17.338 435.052,17.45 432.423,14.572C430.62,12.597 430.921,12.377 430.743,12.23C430.499,12.03 430.062,12.318 429.801,12.14C429.593,11.999 429.762,11.576 429.56,11.427C429.415,11.32 429.297,11.67 427.542,10.439C417.194,3.176 415.065,5.419 411.536,4.062C411.109,3.898 410.931,3.32 410.503,3.156Z" style="fill:rgb(229,212,251);fill-opacity:0.05;"/>
            <path d="M177.09,140.471C177.141,140.018 177.598,135.987 179.395,135.261C186.978,132.196 187.401,147.697 180.523,146.334C176.241,145.484 177.094,140.543 177.09,140.471Z" style="fill:rgb(211,187,252);"/>
            <path d="M362.555,141.498C362.587,140.835 362.533,140.169 362.565,139.506C362.827,134.046 369.567,133.995 370.511,138.498C372.328,147.16 363.689,149.943 362.555,141.498Z" style="fill:rgb(213,196,252);"/>
            <path d="M181.257,73.5C181.254,73.943 182.032,81.709 179.546,81.943C176.34,82.245 177.429,74.922 177.446,69.5C177.463,64.098 176.912,63.957 177.861,62.804C178.372,62.182 179.838,62.143 180.453,62.572C181.606,63.378 181.251,70.468 181.257,73.5Z" style="fill:rgb(254,247,252);"/>
            <path d="M74.936,140.485C74.653,150.796 64.883,145.916 66.95,138.61C67.743,135.808 74.152,132.122 74.936,140.485Z" style="fill:rgb(223,207,253);"/>
            <path d="M277.776,140.485C276.256,150.376 266.142,142.438 270.684,137.676C272.189,136.097 274.176,136.497 274.487,136.56C276.845,137.035 277.669,140.09 277.776,140.485Z" style="fill:rgb(156,125,254);"/>
            <path d="M167.11,138.674C169.124,148.588 156.838,144.46 159.889,138.699C162.445,133.871 166.707,138.259 167.11,138.674Z" style="fill:rgb(158,128,254);"/>
            <path d="M12.136,81.489C12.397,83.795 12.042,83.788 12.012,110.495C12.008,114.197 12.055,114.179 12.003,114.495C11.891,115.184 11.313,114.803 11.2,115.5C11.057,85.064 11.349,84.156 9.37,83.654C6.582,82.948 4.426,79.818 7.486,80.644C9.425,81.168 9.315,82.257 12.136,81.489Z" style="fill:rgb(137,121,180);fill-opacity:0.25;"/>
            <path d="M145.758,76.652C139.237,83.413 136.5,75.784 139.353,74.274C141.139,73.329 145.139,73.04 145.648,73.18C147.138,73.59 145.873,76.398 145.758,76.652Z" style="fill:rgb(101,63,219);"/>
            <path d="M123.493,70.091C122.916,70.094 116.451,70.134 116.29,69.666C114.671,64.955 125.422,63.748 125.904,68.439C126.091,70.255 125.244,69.744 123.493,70.091Z" style="fill:rgb(92,58,192);"/>
            <path d="M442.19,185.453C442.444,186.147 442.697,186.842 442.95,187.537C443.477,192.161 443.833,192.092 443.848,192.495C443.899,193.922 442.023,193.21 441.495,194.496C440.643,196.569 440.866,196.831 438.806,197.684L438.464,196.48C440.74,192.318 441.348,188.736 442.19,185.453Z" style="fill:rgb(205,186,235);fill-opacity:0.09;"/>
            <path d="M75.728,246.732C74.218,248.295 74.268,248.265 72.781,249.78C71.269,251.32 71.113,251.061 69.459,252.427C65.87,255.389 65.323,253.904 63.222,251.776C63.421,250.999 63.619,250.223 63.817,249.446C64.049,249.812 63.869,250.348 64.102,250.713C66.477,254.452 69.369,251.021 69.656,250.681C70.802,249.322 71.198,250.009 71.62,249.635C71.841,249.438 71.503,248.95 71.724,248.754C71.963,248.543 72.437,248.905 72.678,248.696C72.898,248.505 72.569,248.019 72.79,247.83C73.034,247.621 73.506,247.983 73.752,247.777C73.974,247.591 73.624,247.054 73.88,246.918C74.427,246.629 75.181,247.021 75.728,246.732Z" style="fill:rgb(150,132,188);fill-opacity:0.19;"/>
            <path d="M177.389,56.588C177.287,56.224 176.161,52.212 179.506,52.363C183.315,52.536 182.447,60.392 177.389,56.588Z" style="fill:rgb(254,246,252);"/>
            <path d="M255.139,79.52C255.252,79.163 256.656,74.742 259.403,77.604C261.673,79.971 257.541,85.253 255.139,79.52Z" style="fill:rgb(253,239,250);"/>
            <path d="M233.464,80.52C233.439,80.146 233.156,75.926 236.655,77.089C239.739,78.114 237.747,84.68 233.464,80.52Z" style="fill:rgb(251,235,251);"/>
            <path d="M244.103,79.529C244.979,77.023 245.174,76.217 247.654,77.155C251.207,78.5 246.611,85.151 244.103,79.529Z" style="fill:rgb(251,233,252);"/>
            <path d="M34.557,4.812L35.378,5.136C34.959,5.402 34.825,5.999 34.406,6.265C34.254,6.362 34.258,6.286 32.355,7.214C31.295,7.732 31.364,7.711 30.373,8.268C27.792,9.719 27.718,9.376 27.518,9.524C27.315,9.675 27.528,10.098 27.334,10.259C27.101,10.454 26.682,10.242 26.439,10.424C26.246,10.569 26.395,10.963 26.202,11.109C26.202,11.109 24.463,11.259 24.311,11.272C26.59,8.867 26.517,8.843 29.365,7.229C31.838,5.828 34.128,4.972 34.557,4.812Z" style="fill:rgb(164,147,197);fill-opacity:0.19;"/>
            <path d="M12.038,178.504C12.197,183.663 11.405,183.756 13.1,188.612C13.1,188.612 13.26,190.428 13.274,190.586C13.221,191.252 13.168,191.918 13.115,192.584C10.302,187.061 11.03,185.282 11.147,184.531C11.742,181.509 11.059,181.425 12.038,178.504Z" style="fill:rgb(152,131,199);fill-opacity:0.29;"/>
            <path d="M12.037,32.372C12.221,38.459 12.221,38.401 12.227,44.502C11.838,43.158 11.449,41.814 11.061,40.47C10.777,33.595 11.048,33.547 12.037,32.372Z" style="fill:rgb(155,135,203);fill-opacity:0.25;"/>
            <path d="M67.5,2.838C72.285,1.257 73.429,1.93 76.517,3.202C75.73,3.337 70.431,4.243 66.539,3.242L67.5,2.838Z" style="fill:rgb(163,148,189);fill-opacity:0.12;"/>
            <path d="M60.506,2.83C64.107,1.431 64.361,1.791 67.5,2.838L66.539,3.242C66.227,3.342 63.33,4.267 62.512,4.005C61.854,3.794 62.149,3.412 61.459,3.237C60.439,2.978 60.486,3.491 59.526,3.248L60.506,2.83Z" style="fill:rgb(167,152,192);fill-opacity:0.11;"/>
            <path d="M420.55,212.624C421.232,212.734 421.914,212.844 422.596,212.954C419.67,214.104 419.709,214.213 419.438,214.196C418.576,214.141 418.699,213.902 418.633,213.918C418.459,213.962 418.917,215.517 414.501,214.867C414.663,214.766 416.525,213.601 416.525,213.601C418.662,213.435 418.49,212.941 420.55,212.624Z" style="fill:rgb(157,138,197);fill-opacity:0.16;"/>
            <path d="M427.7,209.711C426.36,210.955 426.451,211.064 426.295,211.09C424.174,211.456 424.582,212.268 422.596,212.954C421.914,212.844 421.232,212.734 420.55,212.624C420.952,212.385 424.707,210.146 425.694,209.827C426.331,209.621 427.063,209.917 427.7,209.711Z" style="fill:rgb(159,139,202);fill-opacity:0.21;"/>
            <path d="M435.832,201.703C435.066,204.184 431.821,207.482 429.714,207.851C429.931,207.618 429.624,207.136 429.841,206.903C430.044,206.685 430.51,206.974 430.724,206.766C430.931,206.563 430.653,206.107 430.864,205.907C431.083,205.699 431.535,205.983 431.76,205.782C431.966,205.598 431.719,205.163 431.914,204.968C432.119,204.762 432.556,204.979 432.764,204.776C432.966,204.58 432.756,204.152 432.955,203.954C433.154,203.755 433.588,203.973 433.779,203.765C433.98,203.545 433.73,203.1 433.934,202.883C434.127,202.678 434.568,202.922 434.763,202.718C435.112,202.352 434.568,202.184 434.917,201.852C435.291,201.497 435.453,202.062 435.832,201.703Z" style="fill:rgb(138,121,170);fill-opacity:0.2;"/>
            <path d="M24.311,11.272C24.074,11.827 24.671,12.042 23.401,13.4C22.902,13.932 22.872,13.784 22.335,14.339C21.315,15.396 21.349,15.348 20.342,16.378C20.34,15.699 20.339,15.021 20.337,14.342C20.918,13.868 21.135,14.152 21.441,13.441C21.897,12.381 24.038,11.496 24.311,11.272Z" style="fill:rgb(158,140,200);fill-opacity:0.22;"/>
            <path d="M11.221,177.485L12.038,178.504C11.059,181.425 11.742,181.509 11.147,184.531C9.983,181.146 10.087,180.508 11.221,177.485Z" style="fill:rgb(144,129,177);fill-opacity:0.09;"/>
            <path d="M14.325,193.581C15.78,196.606 16.117,196.389 16.225,196.657C16.36,196.988 16.025,197.397 16.16,197.729L16.23,198.734C15.245,197.621 15.433,197.576 14.569,196.465C14.149,195.924 14.298,195.923 14.086,194.709L14.325,193.581Z" style="fill:rgb(154,135,190);fill-opacity:0.2;"/>
            <path d="M11.2,115.5C11.312,115.913 11.891,116.089 12.003,116.502C12.012,116.535 12.01,121.449 12,121.495C11.916,121.913 11.293,122.082 11.209,122.5C11.206,120.167 11.203,117.834 11.2,115.5Z" style="fill:rgb(123,104,170);fill-opacity:0.34;"/>
            <path d="M15.094,23.319C14.786,24.317 15.37,24.332 15.068,25.313C14.849,26.023 14.438,25.654 14.157,26.359C14.027,26.685 14.407,27.105 14.232,27.41C13.977,27.854 13.269,27.904 13.013,28.349C13.327,25.507 13.353,25.523 15.094,23.319Z" style="fill:rgb(137,123,170);fill-opacity:0.21;"/>
            <path d="M44.499,3.193C43.513,3.523 43.771,4.169 41.457,4.213C40.377,4.233 40.44,4.083 39.388,4.102C41.556,2.441 41.717,2.872 44.499,3.193Z" style="fill:rgb(143,126,181);fill-opacity:0.27;"/>
            <path d="M20.337,14.342C20.339,15.021 20.34,15.699 20.342,16.378C19.993,16.691 20.457,16.855 20.084,17.189C19.73,17.507 19.574,16.992 19.279,17.331C19.076,17.564 19.329,17.991 19.16,18.249C18.893,18.659 18.32,18.801 18.052,19.211L18.113,18.277C18.51,16.014 19.156,16.373 20.337,14.342Z" style="fill:rgb(133,118,164);fill-opacity:0.18;"/>
            <path d="M83.8,238.834L83.756,239.755C82.396,241.153 82.652,241.554 80.747,241.892C80.987,241.623 80.55,241.079 80.79,240.809C81,240.573 81.517,241.007 81.737,240.781C81.964,240.549 81.537,240.037 81.767,239.808C81.998,239.577 82.5,239.988 82.747,239.774C83.152,239.424 82.433,239.242 82.83,238.888C83.251,238.512 83.384,239.206 83.8,238.834Z" style="fill:rgb(160,143,192);fill-opacity:0.14;"/>
            <path d="M18.113,18.277L18.052,19.211C17.13,21.28 15.38,23.032 15.094,23.319C15.684,20.328 16.146,20.557 18.113,18.277Z" style="fill:rgb(117,101,154);fill-opacity:0.25;"/>
            <path d="M438.464,196.48L438.806,197.684C438.289,199.492 438.108,199.338 436.684,200.654C437.046,198.447 438.185,197.26 438.464,196.48Z" style="fill:rgb(143,124,181);fill-opacity:0.22;"/>
            <path d="M13.274,190.586C13.998,192.046 14.055,191.959 14.325,193.581L14.086,194.709C13.371,193.758 13.408,193.787 13.115,192.584C13.168,191.918 13.221,191.252 13.274,190.586Z" style="fill:rgb(144,126,183);fill-opacity:0.22;"/>
            <path d="M38.548,3.874C37.308,5.257 37.203,5.165 35.378,5.136L34.557,4.812C36.515,4.032 36.466,3.99 38.548,3.874Z" style="fill:rgb(125,110,155);fill-opacity:0.19;"/>
            <path d="M60.506,2.83L59.526,3.248C59.364,3.308 57.5,4.001 57.5,4.001C57.073,3.943 56.91,3.261 56.483,3.203C58.46,2.48 58.43,2.686 60.506,2.83Z" style="fill:rgb(136,123,165);fill-opacity:0.13;"/>
            <path d="M16.16,197.729C17.831,199.439 18.103,199.375 18.259,201.735C17.042,200.379 17.422,200.159 16.23,198.734L16.16,197.729Z" style="fill:rgb(122,108,158);fill-opacity:0.21;"/>
            <path d="M13.013,28.349C12.699,29.383 12.385,30.416 12.071,31.449C11.887,28.448 12.721,28.708 13.013,28.349Z" style="fill:rgb(147,133,174);fill-opacity:0.15;"/>
            <path d="M11.209,150.501C11.382,151.156 11.818,150.805 12.002,151.502C12.043,151.657 12.267,152.506 12.001,153.503C11.892,153.914 11.312,154.088 11.202,154.5L11.209,150.501Z" style="fill:rgb(126,104,173);fill-opacity:0.31;"/>
            <path d="M85.711,237.747C85.554,237.907 84.736,238.736 83.756,239.755L83.8,238.834C84.437,238.472 85.074,238.11 85.711,237.747Z" style="fill:rgb(122,106,155);fill-opacity:0.16;"/>
        </g>
    </g>
</svg>
